<svg xmlns="http://www.w3.org/2000/svg" viewBox="0 0 410.32 676.35"><defs><style>.cls-1,.cls-2{fill:#fff;}.cls-2{font-size:101.59px;font-family:DalelandsUncial, Dalelands Uncial;}</style></defs><title>Iteration 3 White</title><g id="Iteration_3_-_Smaller_Hilt" data-name="Iteration 3 - Smaller Hilt"><g id="Outlined"><path class="cls-1" d="M204.76,411.51l62-35.58V305.54l-62.18-36.19-62,36.19V376Zm26.58-49.35L205,402.51l-27.28-41Zm-54-5.74L204.72,315l26.91,42.15Zm58.55-2.06-26.66-41.72,49.88-2.75Zm-62.8-.71-22.92-43.76,50,2.76Zm-.93,8.6,24,36.1-43.91-25.07Zm64.68.75,19.93,10.38-42.66,24.48Zm2.55-4.39L259.59,320v49.18Zm-32.11-51.17V279.23l43,25Zm-5.07,0L159,304.25,202.22,279ZM169.6,357.89l-19.89,11v-49Z"/><rect class="cls-1" x="202.48" y="408.51" width="5" height="40"/><polygon class="cls-1" points="238.54 475.55 204.66 451.58 171.44 475.54 168.52 471.48 204.64 445.44 241.43 471.47 238.54 475.55"/><rect class="cls-1" x="180.48" y="245.26" width="48.5" height="5" transform="translate(-45.13 449.91) rotate(-89.41)"/><text class="cls-2" transform="translate(51.98 373.73)">G</text><text class="cls-2" transform="translate(282.98 373.73)">H</text><polygon class="cls-1" points="228.17 219.51 181.29 219.51 189.17 131.96 193.16 132.32 185.67 215.51 223.79 215.51 216.2 131.14 220.19 130.78 228.17 219.51"/><path class="cls-1" d="M205,647,19.42,339.51l.78-1.29L205,32,390.54,339.51l-.78,1.29ZM25.26,339.51,205,637.31,384.7,339.51,205,41.71Z"/><path class="cls-1" d="M205,676.35l-1.71-2.8L0,339.51l.63-1L205,0,410.32,339.51l-.63,1ZM4.68,339.5,205,668.66,405.64,339.5,205,7.73Z"/><path class="cls-1" d="M204,138.51a24,24,0,1,1,24-24A24,24,0,0,1,204,138.51Zm0-42a18,18,0,1,0,18,18A18,18,0,0,0,204,96.51Z"/><path class="cls-1" d="M133.07,524.91a72.65,72.65,0,0,1,8.17-9.92,80.29,80.29,0,0,1,20.58-15.13l2.87-1.4,2.92-1.29c1-.38,2-.82,3-1.15a5.6,5.6,0,0,1,3.49.21c-1.22,2.57-3.23,3-5,4l-2.68,1.48-2.62,1.57A96.84,96.84,0,0,0,145,518.6a109.34,109.34,0,0,0-7.84,9.22Z"/><path class="cls-1" d="M234.79,495.81a7.18,7.18,0,0,1,3.35.25l3,1.15,3,1.27,2.94,1.39a82.16,82.16,0,0,1,11.17,6.7,89.35,89.35,0,0,1,10,8.4,79.77,79.77,0,0,1,8.59,9.94l-4.06,2.91a93.63,93.63,0,0,0-7.84-9.63,84.22,84.22,0,0,0-9.07-8.54,92.08,92.08,0,0,0-10.22-7.26L243,500.8l-2.78-1.5-2.83-1.4A7.22,7.22,0,0,1,234.79,495.81Z"/><path class="cls-1" d="M139.74,505.16a6,6,0,0,1-3.92-3.32l-2.45-4.17-4.88-8.33c-3.26-5.56-6.43-11.17-9.58-16.79s-6.23-11.27-9.28-16.94L105,447.1l-2.29-4.25a9.86,9.86,0,0,1-1.26-4.84,9.91,9.91,0,0,1,3.53,3.55l2.48,4.14,5,8.29c3.32,5.52,6.56,11.09,9.84,16.63s6.44,11.15,9.56,16.79l4.68,8.45,2.33,4.23A5.92,5.92,0,0,1,139.74,505.16Z"/><path class="cls-1" d="M148.2,491.58a176.41,176.41,0,0,1-10.06-16.21q-4.6-8.31-8.66-16.86c-2.72-5.7-5.27-11.49-7.58-17.38a155.52,155.52,0,0,1-6-18.1A153.64,153.64,0,0,1,126,439.2c3.08,5.53,5.92,11.18,8.59,16.9s5.18,11.52,7.5,17.41A177.64,177.64,0,0,1,148.2,491.58Z"/><path class="cls-1" d="M268.48,505.16c1.73-5.93,5-11,7.88-16.23s5.85-10.47,8.8-15.69,6-10.4,9.06-15.54l4.65-7.71c1.66-2.49,2.59-5.43,5.87-7,.26,3.62-1.83,5.87-3.19,8.55l-4.42,7.83q-4.44,7.83-9.07,15.54c-3.09,5.14-6.18,10.28-9.33,15.39S272.79,500.73,268.48,505.16Z"/><path class="cls-1" d="M289.29,433.21c-.92,6-3.11,11.32-5.47,16.61s-4.69,10.58-7.19,15.8-5.1,10.4-7.74,15.56c-1.33,2.57-2.57,5.18-4,7.7a45.3,45.3,0,0,1-5,7.23,46.73,46.73,0,0,1,2.33-8.5c1-2.72,2.22-5.35,3.34-8,2.27-5.33,4.58-10.64,7-15.9s4.95-10.47,7.54-15.64S285.31,437.73,289.29,433.21Z"/><path class="cls-1" d="M159.07,485.39c-2.69-5.15-5-10.42-7.24-15.74s-4.29-10.7-6.25-16.11-3.79-10.87-5.43-16.39-3.18-11.09-4.31-16.8c2.74,5.13,5.1,10.4,7.31,15.73s4.26,10.7,6.18,16.12,3.74,10.89,5.37,16.42S157.89,479.7,159.07,485.39Z"/><path class="cls-1" d="M251.16,490.64c.26-6.3,2.26-12.1,3.76-18s3.17-11.83,4.79-17.74,3.31-11.79,5.07-17.66l2.66-8.79c1-2.9,1.22-6,4-8.4,1.13,3.51-.37,6.26-1,9.26L268,438.13q-2.44,8.87-5.09,17.66c-1.77,5.86-3.54,11.73-5.37,17.57S254.29,485.17,251.16,490.64Z"/><path class="cls-1" d="M161,448.51a58.53,58.53,0,0,1-3.46-8.56c-.94-2.9-1.73-5.83-2.4-8.79a87.62,87.62,0,0,1-1.57-9,52.45,52.45,0,0,1-.4-9.24,50.67,50.67,0,0,1,3.52,8.55,84.52,84.52,0,0,1,2.34,8.8c.64,3,1.15,6,1.52,9A59.91,59.91,0,0,1,161,448.51Z"/><path class="cls-1" d="M247.48,452c-1-3.5-.23-6.73,0-10.05s.71-6.6,1.09-9.89.86-6.58,1.38-9.86c.26-1.64.52-3.28.81-4.91s0-3.35,2.25-4.71c1.79,1.93.89,3.48.86,5.15s-.37,3.29-.58,4.94c-.4,3.29-.85,6.58-1.4,9.85s-1.08,6.55-1.68,9.82S249.43,448.93,247.48,452Z"/><rect class="cls-1" x="171.28" y="228.63" width="35.34" height="2" transform="translate(-84.43 112.61) rotate(-27.38)"/><rect class="cls-1" x="171.28" y="238.63" width="35.34" height="2" transform="translate(-89.03 113.73) rotate(-27.38)"/><rect class="cls-1" x="171.28" y="248.63" width="35.34" height="2" transform="translate(-93.63 114.86) rotate(-27.38)"/><rect class="cls-1" x="171.28" y="258.63" width="35.34" height="2" transform="translate(-98.23 115.98) rotate(-27.38)"/><rect class="cls-1" x="171.28" y="268.63" width="35.34" height="2" transform="translate(-102.83 117.1) rotate(-27.38)"/><rect class="cls-1" x="169.72" y="401.45" width="19.79" height="2" transform="translate(-188.02 159.4) rotate(-32.48)"/><rect class="cls-1" x="168.86" y="408.5" width="30.76" height="2" transform="translate(-191.08 162.99) rotate(-32.48)"/><rect class="cls-1" x="168.17" y="416.13" width="39.58" height="2" transform="translate(-194.6 166.18) rotate(-32.48)"/><rect class="cls-1" x="168.17" y="426.13" width="39.58" height="2" transform="translate(-199.97 167.74) rotate(-32.48)"/><rect class="cls-1" x="168.17" y="436.13" width="39.58" height="2" transform="translate(-205.34 169.31) rotate(-32.48)"/><rect class="cls-1" x="168.17" y="446.13" width="39.58" height="2" transform="translate(-210.71 170.87) rotate(-32.48)"/><rect class="cls-1" x="170.49" y="394" width="9.69" height="2" transform="translate(-184.69 155.94) rotate(-32.48)"/><path class="cls-1" d="M190.65,151.15l-2.94-.6a8.77,8.77,0,0,1,7-6.51,69.31,69.31,0,0,1,8.49-1.32A92.72,92.72,0,0,0,213.69,141c3.7-.74,3.75-5.37,3.75-5.57h3c0,2.52-1.25,7.54-6.17,8.52a90.44,90.44,0,0,1-10.8,1.72,68.88,68.88,0,0,0-8.2,1.28A5.81,5.81,0,0,0,190.65,151.15Z"/><path class="cls-1" d="M189.44,171.18l-2.92-.66c0-.22,1.29-5.34,7.63-6.49,5-.9,7.15-1.1,9.42-1.32,2.47-.24,5-.48,11.65-1.68,4.25-.76,4.26-5.36,4.26-5.55l3,0c0,2.52-1.36,7.56-6.73,8.52-6.75,1.22-9.36,1.47-11.89,1.71-2.21.22-4.3.41-9.18,1.29C190.27,167.78,189.45,171.15,189.44,171.18Z"/><path class="cls-1" d="M187.43,191.24l-2.9-.76c.05-.22,1.44-5.33,8.43-6.45,5.18-.84,7.8-1.08,10.58-1.33,3-.28,6.17-.57,13-1.67a5.57,5.57,0,0,0,4.9-5.56l3,0a8.57,8.57,0,0,1-7.43,8.54c-7,1.12-10.16,1.41-13.24,1.7-2.72.25-5.3.48-10.38,1.3S187.47,191.1,187.43,191.24Z"/><path class="cls-1" d="M185.31,211.54l-2.67-1.37c.11-.2,2.64-5.06,9.92-6.15,5.32-.79,8.3-1.05,11.46-1.33,3.45-.3,7-.61,14.08-1.67a5.17,5.17,0,0,0,3.62-1.88,5,5,0,0,0,.78-3.41l3-.52a8.2,8.2,0,0,1-1.3,5.69,8.06,8.06,0,0,1-5.62,3.09c-7.15,1.07-10.77,1.38-14.26,1.69-3.11.28-6,.53-11.28,1.31C187.33,207.84,185.39,211.39,185.31,211.54Z"/><polygon class="cls-1" points="203.98 122.99 197.5 114.51 203.98 106.02 210.47 114.51 203.98 122.99"/><path class="cls-1" d="M254.75,190.28s-1.75-7.49-3.08-8.89-7.06-4.32-7.06-4.32,5.54-1.72,7-3.29,2.92-9.73,2.92-9.73,1.78,8.34,3.11,9.78,7,3.42,7,3.42-5.82,2.65-7,4.19S254.75,190.28,254.75,190.28Z"/><path class="cls-1" d="M120.75,285.28s-1.75-7.49-3.08-8.89-7.06-4.32-7.06-4.32,5.54-1.72,7-3.29,2.92-9.73,2.92-9.73,1.78,8.34,3.11,9.78,7,3.42,7,3.42-5.82,2.65-7,4.19S120.75,285.28,120.75,285.28Z"/><circle class="cls-1" cx="169.48" cy="177.01" r="2.5"/><circle class="cls-1" cx="110.48" cy="234.01" r="2.5"/><circle class="cls-1" cx="90.48" cy="259.01" r="2.5"/><circle class="cls-1" cx="309.48" cy="288.01" r="2.5"/><circle class="cls-1" cx="277.48" cy="257.01" r="2.5"/><circle class="cls-1" cx="171.48" cy="153.01" r="1.5"/><circle class="cls-1" cx="236.48" cy="147.01" r="1.5"/><circle class="cls-1" cx="297.48" cy="230.01" r="1.5"/><circle class="cls-1" cx="101.48" cy="288.01" r="1.5"/><circle class="cls-1" cx="135.48" cy="394.01" r="1.5"/><circle class="cls-1" cx="68.48" cy="291.01" r="1.5"/><circle class="cls-1" cx="90.48" cy="401.01" r="1"/><circle class="cls-1" cx="172.48" cy="130.01" r="1.5"/><circle class="cls-1" cx="239.48" cy="117.01" r="1.5"/><circle class="cls-1" cx="300.48" cy="255.01" r="1.5"/><circle class="cls-1" cx="324.48" cy="266.01" r="1.5"/><circle class="cls-1" cx="279.48" cy="392.01" r="1.5"/><circle class="cls-1" cx="322.48" cy="401.01" r="1.5"/><circle class="cls-1" cx="153.48" cy="156.01" r="1.5"/><circle class="cls-1" cx="196.48" cy="74.01" r="1.5"/><circle class="cls-1" cx="278.48" cy="203.01" r="1.5"/><circle class="cls-1" cx="256.48" cy="147.01" r="1.5"/><circle class="cls-1" cx="155.48" cy="264.01" r="1.5"/><circle class="cls-1" cx="149.98" cy="198.51" r="4"/><circle class="cls-1" cx="264.98" cy="277.51" r="4"/><path class="cls-1" d="M197,613a23.4,23.4,0,0,1,4.5-1,37.77,37.77,0,0,1,4.5-.29,32.32,32.32,0,0,1,4.5.24,20.88,20.88,0,0,1,4.5,1,20.88,20.88,0,0,1-4.5,1,32.32,32.32,0,0,1-4.5.24,37.77,37.77,0,0,1-4.5-.29A24.17,24.17,0,0,1,197,613Z"/><path class="cls-1" d="M194,601a40.32,40.32,0,0,1,6-1c2-.19,4-.28,6-.29a57.32,57.32,0,0,1,6,.24,35.88,35.88,0,0,1,6,1,35.88,35.88,0,0,1-6,1,57.32,57.32,0,0,1-6,.24c-2,0-4-.1-6-.29A41.67,41.67,0,0,1,194,601Z"/><path class="cls-1" d="M191,589a60.13,60.13,0,0,1,7.5-1c2.5-.2,5-.29,7.5-.3s5,0,7.5.25a52.16,52.16,0,0,1,7.5,1,52.16,52.16,0,0,1-7.5,1c-2.5.2-5,.26-7.5.25s-5-.11-7.5-.3A60.13,60.13,0,0,1,191,589Z"/><path class="cls-1" d="M188,576a85.91,85.91,0,0,1,9-1c3-.21,6-.27,9-.3,1.5,0,3,0,4.5,0s3,.1,4.5.21a74.45,74.45,0,0,1,9,1,74.45,74.45,0,0,1-9,1c-1.5.11-3,.14-4.5.2s-3,.07-4.5,0c-3,0-6-.1-9-.3A85.91,85.91,0,0,1,188,576Z"/><path class="cls-1" d="M258,216.51s-17.93-2-55-2-61,2-61,2a11,11,0,1,0,11,11h94a11,11,0,1,0,11-11Z"/><polygon class="cls-1" points="204.65 538.47 167.14 474.17 167.15 473.47 168.5 388.8 173.5 388.88 172.16 472.85 204.65 528.55 237.14 472.85 235.8 388.88 240.8 388.8 242.16 474.17 204.65 538.47"/><polygon class="cls-1" points="234.24 291.4 233.19 226.01 176.11 226.01 175.06 291.4 170.06 291.32 171.19 221.01 238.11 221.01 239.24 291.32 234.24 291.4"/></g></g></svg>